<svg xmlns="http://www.w3.org/2000/svg" fill="none" viewBox="0 0 200 104"
  class="LogoLink-cvaIcon w-full h-full">
  <path fill="#EF2E20"
    d="M100 6C81.24 6 66.033 21.208 66.033 39.967c0 12.333 6.573 23.13 16.407 29.081h35.12c9.834-5.95 16.407-16.748 16.407-29.081C133.967 21.207 118.759 6 100 6"></path>
  <path fill="#fff"
    d="M35.03 85.332v-1.945a15 15 0 0 0-2.805-.253q-2.348 0-3.801 1.63-1.452 1.629-1.452 4.205 0 2.552 1.452 4.168 1.453 1.618 3.801 1.618 2.78 0 4.144-1.693l2.425 2.425q-2.577 2.526-6.795 2.527-4.118 0-6.683-2.514-2.562-2.513-2.563-6.555 0-4.018 2.589-6.543t6.682-2.527q3.84 0 6.442 1.592v3.865zM57.265 95.132h1.34v-9.17l-5.028 11.823h-2.955L45.57 85.963v9.17h1.338v2.652H40.01v-2.653h1.34V82.754h-1.34v-2.652h6.973l5.128 11.897 5.077-11.897h6.973v2.652h-1.34v12.378h1.34v2.653h-6.897zM67.85 82.39q2.577-2.514 6.694-2.515 4.118 0 6.695 2.514t2.576 6.555q0 4.043-2.576 6.555-2.577 2.514-6.696 2.514-4.117 0-6.693-2.514-2.577-2.513-2.577-6.555t2.577-6.555m3.082 10.71q1.44 1.654 3.611 1.654 2.249 0 3.664-1.641 1.414-1.643 1.414-4.169.001-2.526-1.414-4.169-1.415-1.64-3.663-1.64-2.172-.001-3.612 1.654-1.44 1.653-1.44 4.155t1.44 4.155M96.426 95.132h1.365V83.385h-5.28q0 6.316-.48 9.372-.48 3.058-1.554 4.155-1.074 1.1-3.296 1.1-2.097 0-3.486-1.289l2.247-2.272q.38.302.86.302a.84.84 0 0 0 .555-.19q.228-.188.405-.77a8 8 0 0 0 .265-1.364q.09-.784.152-2.248.061-1.465.088-3.132t.05-4.295H86.98v-2.652h16.369v2.652h-1.364v12.378h1.364v2.653h-6.922zM121.738 95.132h1.339v-9.17l-5.027 11.823h-2.955l-5.053-11.822v9.17h1.338v2.652h-6.896v-2.653h1.339V82.754h-1.339v-2.652h6.972l5.128 11.897 5.078-11.897h6.972v2.652h-1.339v12.378h1.339v2.653h-6.896zM142.635 95.132h1.489l-.58-1.313h-8.438l-.58 1.313h1.464v2.653h-7.022v-2.653h1.491l5.506-12.378h-1.667v-2.652h7.175l6.694 15.03h1.515v2.653h-7.047zm-6.038-4.597h5.507L139.3 84.27zM160.17 80.102h6.896v2.652h-1.339V94.5h5.962V82.754h-1.363v-2.652h6.921v2.652h-1.364v12.378h1.364v2.653h-27.232v-2.653h1.339V82.754h-1.339v-2.652h6.897v2.652h-1.339V94.5h5.936V82.754h-1.339z"
    opacity="1"></path>
  <mask id="logo_svg__a" width="61" height="41" x="65" y="32" maskUnits="userSpaceOnUse"
    style="mask-type:alpha">
    <path fill="#000"
      d="M111.947 33.498c-.048.041-.168.135-.28.233a10 10 0 0 0-1.374.361c-.319.109-.634.238-.98.238q-.672.001-1.345.011c-1.013.013-2.025.027-3.03-.039-.991-.062-1.988.01-2.96-.115-.714-.088-1.417-.025-2.117-.095-.195-.022-.384.016-.568.053-.175.035-.347.07-.52.056-.367-.018-.661.168-.979.255-.43.123-.864.207-1.284.343-.675.196-1.363.363-2.053.524-.571.133-1.138.309-1.718.413-.406.077-.843.112-1.242.298-.237.115-.525.059-.798.13-.632.167-1.305.23-1.944.384-.54.125-1.112.091-1.626.325-.337-.077-.642.122-.977.133-.21 0-.42.063-.633.105-.071.015-.146.008-.222.001-.144-.013-.291-.025-.422.108-.06.052-.22.006-.336.006-.377-.004-.74.094-1.104.211-.074.016-.151.005-.218.023-.072.015-.142.009-.213.005-.125-.01-.252-.02-.379.083-.07.054-.159.05-.253.045-.108-.005-.224-.01-.327.071-.069.058-.157.056-.256.055-.104-.002-.217-.004-.325.063-.153.105-.422-.02-.611.14-.448-.048-.854.162-1.27.248-.721.155-1.41.456-2.134.606-.301.063-.564.213-.84.325-.29.12-.608.168-.889.33-.26.146-.517.304-.793.42-.707.307-1.284.81-1.848 1.314-.252.225-.51.43-.727.693-.21.245-.427.49-.658.685-.189.15-.279.364-.461.515-.154.136-.238.36-.382.521-.171.193-.272.43-.422.622-.169.2-.28.42-.403.64-.395.708-.757 1.428-1.147 2.132a7 7 0 0 0-.532 1.169c-.074.212-.238.393-.347.603l-.01.015c-.08.164-.06.378-.241.524-.137.11-.137.354-.27.522-.158.192-.241.497-.241.755-.007.35-.19.629-.319.91-.261.602-.479 1.214-.58 1.839-.12.665-.095 1.376.259 2.016.111.192.308.402.06.64-.036.028-.005.167-.005.167l-.237 1.995.584 3.366.877 2.825c-.09.082-1.92 3.306-2.3 4.219.156-.042.131 1.99.21 2.204.695.98 1.758 1.413 2.83 1.854.195.074.594.234.594.234h3.353l-.027-.598c-.039-.028-.549-.293-.78-.51-.163-.161-.37-.285-.511-.382-.196-.574.133-1.004.176-1.473.332-.37.426-.91.835-1.319.099.284 1.97 3.915 1.97 3.915h6.534l-.206-1.098-2.12-.753-.49-.471.777-7.98.766-1.476 1.053-1.133s1.365-1.25 1.564-1.445c.203-.193.535-.21.72-.458.483-.085.86-.407 1.294-.591.305-.133.55-.393.906-.442.039.03.088.087.141.138.014.313-.805 2.7-.805 2.7l.237 2.102.914 4.316c.15.281.58 1.848.58 1.848l1.306 1.608.45.752h7.021l-.042-1.065-2.91-1.338s-.2-3.337-.042-3.501c0-.465-.032-.952.007-1.431.046-.454.36-1.49.434-1.567l1.508-3.606s-.06 5.572-.151 5.898c.045.047 2.92 3.463 3.04 3.847.097-.115 2.158 2.48 2.158 2.48l7.175-.133-.5-1.307-3.009-1.386s-.339-2.425-.318-2.816c.022-.367.119-.714.211-1.071.066-.248.002-.535.02-.803 0-.106.042-.207.069-.316-.017-.06-.069-.143-.069-.228-.01-.502-.053-1.006.007-1.503.059-.48.206-.955.357-1.407.188-.542.489-1.03.663-1.581.071-.21.218-.424.355-.596.231-.289.322-.645.535-.943.143-.193.199-.465.339-.665.14-.189.249-.398.375-.595.123-.189.266-.419.493-.535.168-.524.622-.823.959-1.213-.022-.22.268-.176.297-.396.021-.161.196-.296.311-.445.258-.353.539-.685.755-1.063.221-.387.441-.773.63-1.18.23-.485.389-.998.514-1.527.105-.461.291-.917.221-1.343.175-.56.651-.66 1.053-.812.474-.175.92-.44 1.403-.581a11 11 0 0 0 1.384-.51c.382-.146.774-.241 1.141-.423.136-.075.307-.077.44-.154.403-.235.834-.382 1.257-.55.21-.09.432-.189.609-.32.205-.155.479-.162.651-.369.024-.031.107-.003.184-.003.189-.175.357-.397.643-.473.11-.031.197-.167.294-.247.253-.221.491-.466.759-.651.187-.13.427-.25.637-.235.381.026.718-.133 1.089-.136.178-.004.345-.077.523-.112a.7.7 0 0 1 .154-.002c.108.008.218.015.322-.09.05-.048.186-.038.266-.02.257.045.466-.105.697-.108.231-.008.48-.144.48-.144l.671-.087.587-1.132-1.892-.225.077-.372 2.208-.438s.58-.919.72-1.269v-.535c.133-.192.238-.356.343-.518 0-.287-.273-.38-.386-.594-.11-.21-.338-.304-.573-.388a2.2 2.2 0 0 1-.647-.35c-.248-.203-.566-.179-.839-.318-.249-.136-.532-.19-.805-.25-.133-.014-.242-.076-.357-.114-.591-.168-1.204-.304-1.794-.476-.22-.056-.421-.174-.605-.259-.023-.077-.305-.196-.305-.196-.056-.07-.133-.166-.158-.2-.454-.083-.839-.15-1.249-.226a23 23 0 0 1-2.147.213c-.344.01-.684-.029-1.026-.068-.404-.047-.811-.093-1.234-.058-.08-.147-.162-.308-.266-.456-.087-.128-.203-.24-.318-.383-.542.32-1.169.54-1.305 1.392"></path>
  </mask>
  <g mask="url(#logo_svg__a)">
    <path fill="#F9F9F9"
      d="M111.947 33.498c-.048.041-.168.135-.28.233a10 10 0 0 0-1.374.361c-.319.109-.634.238-.98.238q-.672.001-1.345.011c-1.013.013-2.025.027-3.03-.039-.991-.062-1.988.01-2.96-.115-.714-.088-1.417-.025-2.117-.095-.195-.022-.384.016-.568.053-.175.035-.347.07-.52.056-.367-.018-.661.168-.979.255-.43.123-.864.207-1.284.343-.675.196-1.363.363-2.053.524-.571.133-1.138.309-1.718.413-.406.077-.843.112-1.242.298-.237.115-.525.059-.798.13-.632.167-1.305.23-1.944.384-.54.125-1.112.091-1.626.325-.337-.077-.642.122-.977.133-.21 0-.42.063-.633.105-.071.015-.146.008-.222.001-.144-.013-.291-.025-.422.108-.06.052-.22.006-.336.006-.377-.004-.74.094-1.104.211-.074.016-.151.005-.218.023-.072.015-.142.009-.213.005-.125-.01-.252-.02-.379.083-.07.054-.159.05-.253.045-.108-.005-.224-.01-.327.071-.069.058-.157.056-.256.055-.104-.002-.217-.004-.325.063-.153.105-.422-.02-.611.14-.448-.048-.854.162-1.27.248-.721.155-1.41.456-2.134.606-.301.063-.564.213-.84.325-.29.12-.608.168-.889.33-.26.146-.517.304-.793.42-.707.307-1.284.81-1.848 1.314-.252.225-.51.43-.727.693-.21.245-.427.49-.658.685-.189.15-.279.364-.461.515-.154.136-.238.36-.382.521-.171.193-.272.43-.422.622-.169.2-.28.42-.403.64-.395.708-.757 1.428-1.147 2.132a7 7 0 0 0-.532 1.169c-.074.212-.238.393-.347.603l-.01.015c-.08.164-.06.378-.241.524-.137.11-.137.354-.27.522-.158.192-.241.497-.241.755-.007.35-.19.629-.319.91-.261.602-.479 1.214-.58 1.839-.12.665-.095 1.376.259 2.016.111.192.308.402.06.64-.036.028-.005.167-.005.167l-.237 1.995.584 3.366.877 2.825c-.09.082-1.92 3.306-2.3 4.219.156-.042.131 1.99.21 2.204.695.98 1.758 1.413 2.83 1.854.195.074.594.234.594.234h3.353l-.027-.598c-.039-.028-.549-.293-.78-.51-.163-.161-.37-.285-.511-.382-.196-.574.133-1.004.176-1.473.332-.37.426-.91.835-1.319.099.284 1.97 3.915 1.97 3.915h6.534l-.206-1.098-2.12-.753-.49-.471.777-7.98.766-1.476 1.053-1.133s1.365-1.25 1.564-1.445c.203-.193.535-.21.72-.458.483-.085.86-.407 1.294-.591.305-.133.55-.393.906-.442.039.03.088.087.141.138.014.313-.805 2.7-.805 2.7l.237 2.102.914 4.316c.15.281.58 1.848.58 1.848l1.306 1.608.45.752h7.021l-.042-1.065-2.91-1.338s-.2-3.337-.042-3.501c0-.465-.032-.952.007-1.431.046-.454.36-1.49.434-1.567l1.508-3.606s-.06 5.572-.151 5.898c.045.047 2.92 3.463 3.04 3.847.097-.115 2.158 2.48 2.158 2.48l7.175-.133-.5-1.307-3.009-1.386s-.339-2.425-.318-2.816c.022-.367.119-.714.211-1.071.066-.248.002-.535.02-.803 0-.106.042-.207.069-.316-.017-.06-.069-.143-.069-.228-.01-.502-.053-1.006.007-1.503.059-.48.206-.955.357-1.407.188-.542.489-1.03.663-1.581.071-.21.218-.424.355-.596.231-.289.322-.645.535-.943.143-.193.199-.465.339-.665.14-.189.249-.398.375-.595.123-.189.266-.419.493-.535.168-.524.622-.823.959-1.213-.022-.22.268-.176.297-.396.021-.161.196-.296.311-.445.258-.353.539-.685.755-1.063.221-.387.441-.773.63-1.18.23-.485.389-.998.514-1.527.105-.461.291-.917.221-1.343.175-.56.651-.66 1.053-.812.474-.175.92-.44 1.403-.581a11 11 0 0 0 1.384-.51c.382-.146.774-.241 1.141-.423.136-.075.307-.077.44-.154.403-.235.834-.382 1.257-.55.21-.09.432-.189.609-.32.205-.155.479-.162.651-.369.024-.031.107-.003.184-.003.189-.175.357-.397.643-.473.11-.031.197-.167.294-.247.253-.221.491-.466.759-.651.187-.13.427-.25.637-.235.381.026.718-.133 1.089-.136.178-.004.345-.077.523-.112a.7.7 0 0 1 .154-.002c.108.008.218.015.322-.09.05-.048.186-.038.266-.02.257.045.466-.105.697-.108.231-.008.48-.144.48-.144l.671-.087.587-1.132-1.892-.225.077-.372 2.208-.438s.58-.919.72-1.269v-.535c.133-.192.238-.356.343-.518 0-.287-.273-.38-.386-.594-.11-.21-.338-.304-.573-.388a2.2 2.2 0 0 1-.647-.35c-.248-.203-.566-.179-.839-.318-.249-.136-.532-.19-.805-.25-.133-.014-.242-.076-.357-.114-.591-.168-1.204-.304-1.794-.476-.22-.056-.421-.174-.605-.259-.023-.077-.305-.196-.305-.196-.056-.07-.133-.166-.158-.2-.454-.083-.839-.15-1.249-.226a23 23 0 0 1-2.147.213c-.344.01-.684-.029-1.026-.068-.404-.047-.811-.093-1.234-.058-.08-.147-.162-.308-.266-.456-.087-.128-.203-.24-.318-.383-.542.32-1.169.54-1.305 1.392"></path>
    <path fill="#7C7B79" d="m78.722 62.161-3.123.504-1.956-2.921 7.227-5.435z"></path>
    <path fill="#fff" d="m78.725 62.161 4.117-4.439-1.97-3.413z"></path>
    <path fill="url(#logo_svg__b)"
      d="m114.467 38.162 2.349 2.286 2.776-.16.78-2.368-.868-1.348-4.294-.54z"></path>
    <path fill="#7C7B79" d="m68.033 69.716 1.511-2.498-1.031-2.316-1.78 3.251z"></path>
    <path fill="#B7B6B6"
      d="m86.865 61.305.65 2.724 2.183-.818 1.726-2.854-.327-1.568-3.582-.133zM88.22 68.357l2.211-1.476-.373-1.701-2.806.748v1.06z"></path>
    <path fill="url(#logo_svg__c)" d="m73.973 69.027 2.144-1.469-.521-4.894-5.73-2.719z"></path>
    <path fill="url(#logo_svg__d)" d="M96.717 67.315q.02-.003.073.04l3.716 1.744.238-3.872z"></path>
    <path fill="url(#logo_svg__e)" d="m95.326 62.6 2.463 1.364 2.627-.755.574-3.468-5.208-2.788z"></path>
    <path fill="url(#logo_svg__f)"
      d="m85.326 47.72-1.98 3.87 1.459 3.923 6.615-1.543 1.562-4.212-1.629-2.649z"></path>
    <path fill="url(#logo_svg__g)"
      d="M94.74 50.906v3.331l5.926 2.717 2.932-2.239-.718-3.668-6.183-2.79z"></path>
    <path fill="url(#logo_svg__h)" d="m108.807 44.25 4.841-1.36.757-1.843-2.799-3.32-3.905-.13z"></path>
    <path fill="#7C7B79" d="m68.033 69.716 1.511-2.498-1.031-2.316-1.78 3.251z"></path>
    <path fill="#B7B6B6"
      d="m86.865 61.305.65 2.724 2.183-.818 1.726-2.854-.327-1.568-3.582-.133zM88.22 68.357l2.211-1.476-.373-1.701-2.806.748v1.06z"></path>
    <path fill="url(#logo_svg__i)"
      d="m96.693 38.95.522 7.136 7.748 4.41 2.735-5.16-2.345-7.065-4.69-1.427z"></path>
    <path fill="#fff" d="m113.926 33.747-.681-.653-.231 1.224.639.08z"></path>
    <path fill="url(#logo_svg__j)" d="m80.936 41.266 3.323 4.823 7.812-.814 2.997-2.383v-3.939z"></path>
    <path fill="url(#logo_svg__k)"
      d="m73.186 44.792-3.32 6.319.455 5.575 3.32 3.057 7.226-5.435.46-6.322-4.497-3.736z"></path>
    <path fill="#B7B6B6" d="m95.07 42.889 2.148 3.197-.521-7.135-2.722-3.709 1.095 3.71z"></path>
    <path fill="#fff" d="m100.666 36.845-1.374-2.974-5.317 1.37 2.72 3.71z"></path>
    <path fill="#D8D8D8"
      d="m115.212 36.029-.142-3.092-1.289-.976h-1.157l-2.239 2.06 1.221 3.704zm-1.966-2.935.682.653-.272.651-.641-.08z"></path>
    <path fill="#B7B6B6" d="m81.327 47.986-.391-6.723-5.23-1.962 1.126 4.95z"></path>
    <path fill="#E6E6E6" d="m99.291 33.871 1.375 2.973 4.691 1.428.724-4.055-.003-.035z"></path>
    <path fill="#fff" d="m107.699 37.6 3.904.128-1.221-3.705-4.306.162.003.035.008-.035z"></path>
    <path fill="#D1D1D1" d="M69.867 51.113 67.23 49.54l-1.126 3.753.309 3.173 3.91.224z"></path>
    <path fill="#D1D1D1"
      d="m69.868 59.945-3.456-3.484 2.36 5.199 3.478 6.901-.056 1.847 1.655 2.264.125-3.646z"></path>
    <path fill="#7C7B79" d="m73.975 69.025-.125 3.645 4.096-2.532-1.827-2.583z"></path>
    <path fill="#B7B6B6" d="m76.12 67.557 1.827 2.582 1.088-3.893.325-3.509-.636-.577-3.124.504z"></path>
    <path fill="#E6E6E6"
      d="m119.507 36.572.983-2.987-.731-.878-4.691.231.144 3.092zM73.19 44.792 70.6 43.64l-3.368 5.894 2.638 1.574z"></path>
    <path fill="#fff" d="m76.834 44.25-1.126-4.95-2.779 1.693-2.33 2.649 2.59 1.15z"></path>
    <path fill="#B7B6B6" d="m70.324 56.685-3.912-.224 3.457 3.484z"></path>
    <path fill="#fff" d="m95.071 38.951-1.095-3.709-12.551 2.1-5.716 1.958 5.23 1.963z"></path>
    <path fill="#E6E6E6" d="m91.354 47.11 1.629 2.648 1.757 1.151 1.955-2.648-4.625-2.988z"></path>
    <path fill="#D1D1D1" d="m80.936 41.266.391 6.722 2.931-1.9z"></path>
    <path fill="#fff" d="m84.26 46.088 1.066 1.63 6.029-.609.716-1.836z"></path>
    <path fill="#7C7B79" d="m96.693 48.26.521-2.172-2.148-3.197-2.998 2.382z"></path>
    <path fill="#54514C"
      d="m80.712 72.673.144-1.043-2.91-1.49-4.096 2.533h1.129l1.371.342 1.596.042.454.54.185-.495.49.123.297-.552.438.314z"></path>
    <path fill="#D8D8D8" d="m119.506 36.574.867 1.347 4.964-.79-.273-1.1-.808-.258z"></path>
    <path fill="#fff" d="m69.87 59.948 5.73 2.718-1.957-2.92-3.32-3.059z"></path>
    <path fill="#B7B6B6"
      d="m106.089 34.184-.732 4.09 2.344 7.065 1.106-1.087-1.106-6.654zM115.21 36.031l-3.606 1.696 2.798 3.32 2.414-.598-2.348-2.287zM96.693 48.259l6.185 2.788 2.085-.55-7.748-4.411zM94.74 50.909l-1.757-1.151-1.563 4.21 2.591 1.901.728-1.63z"></path>
    <path fill="#fff" d="m84.262 46.086-2.931 1.9-.458 6.32 2.477-2.717 1.979-3.873z"></path>
    <path fill="#B7B6B6" d="m94.01 55.865 1.77 1.087 5.209 2.788-.325-2.788-5.926-2.718z"></path>
    <path fill="#fff" d="m120.488 33.586-.982 2.987 4.75-.8.615-.928z"></path>
    <path fill="#fff" d="m126.456 35.691-1.585-.847-.615.927.331.423.476-.164.27 1.098.419-.12z"></path>
    <path fill="#B7B6B6" d="m83.346 51.59-2.477 2.718 1.97 3.414 1.965-2.21z"></path>
    <path fill="#54514C" d="m97.79 63.966-1.077 3.352 4.034-2.093 1.476-.657-1.805-1.357z"></path>
    <path fill="#fff" d="m102.539 66.973-.315-2.403-1.476.658z"></path>
    <path fill="#7C7B79" d="m114.402 41.048-.756 1.843.983 2.284 4.324-3.264-2.137-1.462z"></path>
    <path fill="#54514C" d="m108.807 44.252-1.106 1.087 1.802 2.509 5.128-2.673-.983-2.284z"></path>
    <path fill="#fff" d="m100.416 63.208 1.805 1.357.976-6.01-2.207 1.186z"></path>
    <path fill="#B7B6B6" d="m104.967 50.497 2.266 2.036 2.271-4.688-1.802-2.51z"></path>
    <path fill="#7C7B79" d="m100.506 69.099 2.029-2.127-1.791-1.745z"></path>
    <path fill="#54514C"
      d="m102.88 51.05.717 3.67-2.931 2.239.325 2.786 2.207-1.186 4.034-6.023-2.267-2.036zM119.596 40.29l-2.778.16 2.138 1.462 5.059-.988-3.639-3.002z"></path>
    <path fill="#B7B6B6" d="m120.377 37.917-.781 2.368 4.419.634 1.325-.815.417-3.096z"></path>
    <path fill="#E6E6E6" d="m95.783 56.955-1.77-1.088-.325 2.92-.381 4.689 2.021-.875z"></path>
    <path fill="#7C7B79" d="m94.01 55.87-2.592-1.901-6.615 1.543-1.965 2.211 3.182-.588z"></path>
    <path fill="#B7B6B6" d="m97.791 63.966-2.463-1.364-2.021.874 3.407 3.841z"></path>
    <path fill="#fff" d="m99.201 70.087 3.886.665 2.96-1.088-5.537-.566z"></path>
    <path fill="#B7B6B6" d="m106.043 69.663.361-.605-3.869-2.09-2.029 2.128z"></path>
    <path fill="#7C7B79"
      d="m96.714 67.317-3.407-3.84 5.894 6.611 1.308-.99zM72.817 72.944l-.497-1.55-1.019-.597-3.389.499z"></path>
    <path fill="#54514C"
      d="m65.904 71.601 2.102 1.071 1.537.594 1.66.042.511.353.312-.364.48.298.31-.654-4.904-1.648z"></path>
    <path fill="#54514C" d="m68.031 69.716-.119 1.578 3.39-.5.948-2.232-2.708-1.343z"></path>
    <path fill="#fff" d="m68.51 64.906 1.032 2.316 2.707 1.344-3.477-6.902z"></path>
    <path fill="#E6E6E6" d="m68.508 64.901-1.193-1.151-2.372 5.177 1.785-.776z"></path>
    <path fill="#54514C" d="m68.77 61.66-2.361-5.2-.364 2.096 1.27 5.195 1.193 1.151z"></path>
    <path fill="#D1D1D1" d="m68.029 69.719-1.301-1.563-1.785.776.958 2.672 2.008-.308z"></path>
    <path fill="#fff" d="m87.514 58.656 3.583.133 2.917-2.922-5.096.448-4.611 1.128z"></path>
    <path fill="#E6E6E6" d="m86.862 61.305-2.473-.739 1.115 5.3 2.008-1.837z"></path>
    <path fill="#7C7B79" d="m90.43 66.883 1.605.79-.153-3.501-1.825 1.01z"></path>
    <path fill="#54514C" d="m88.22 68.359 3.817-.686-1.606-.79z"></path>
    <path fill="#7C7B79" d="m89.697 63.21 2.186.958 1.806-5.379-2.267 1.567z"></path>
    <path fill="#D1D1D1" d="m87.514 64.029-2.008 1.836 1.745.063 2.807-.748 1.825-1.011-2.186-.958z"></path>
    <path fill="#fff"
      d="m87.252 69.443.585.755 5.526.245.484.21.166-.388.533-.032.797-.143-7.122-1.73z"></path>
    <path fill="#E6E6E6" d="m87.251 65.93-1.745-.063.444 1.95 1.301-.826z"></path>
    <path fill="#54514C" d="m87.248 66.988-1.3.825 1.3 1.627.969-1.083z"></path>
    <path fill="#7C7B79"
      d="m95.343 70.09-.213-1.726-3.093-.692-3.816.686zM87.514 58.659l-3.207-1.214.084 3.124 2.473.738z"></path>
    <path fill="#54514C" d="m91.096 58.789.326 1.567 2.266-1.567.325-2.922z"></path>
    <path fill="#fff"
      d="m119.133 34.215-1.014.258-.26.214.54.223.199.198h.524l.402-.421zM124.911 38.55l-3.253.34-.281.655.504-.06 2.637.1-1.598-.33-.217-.266z"></path>
  </g>
  <defs>
    <linearGradient id="logo_svg__b" x1="114.467" x2="120.372" y1="38.24" y2="38.24"
      gradientUnits="userSpaceOnUse">
      <stop stop-color="#fff"></stop>
      <stop offset="1" stop-color="#C9C8C8"></stop>
    </linearGradient>
    <linearGradient id="logo_svg__c" x1="69.865" x2="76.117" y1="64.488" y2="64.488"
      gradientUnits="userSpaceOnUse">
      <stop stop-color="#fff"></stop>
      <stop offset="1" stop-color="#C9C8C8"></stop>
    </linearGradient>
    <linearGradient id="logo_svg__d" x1="96.717" x2="100.744" y1="67.164" y2="67.164"
      gradientUnits="userSpaceOnUse">
      <stop stop-color="#fff"></stop>
      <stop offset="1" stop-color="#C9C8C8"></stop>
    </linearGradient>
    <linearGradient id="logo_svg__e" x1="95.326" x2="100.99" y1="60.458" y2="60.458"
      gradientUnits="userSpaceOnUse">
      <stop stop-color="#fff"></stop>
      <stop offset="1" stop-color="#C9C8C8"></stop>
    </linearGradient>
    <linearGradient id="logo_svg__f" x1="83.345" x2="92.983" y1="51.306" y2="51.306"
      gradientUnits="userSpaceOnUse">
      <stop stop-color="#fff"></stop>
      <stop offset="1" stop-color="#C9C8C8"></stop>
    </linearGradient>
    <linearGradient id="logo_svg__g" x1="94.74" x2="103.598" y1="52.609" y2="52.609"
      gradientUnits="userSpaceOnUse">
      <stop stop-color="#fff"></stop>
      <stop offset="1" stop-color="#C9C8C8"></stop>
    </linearGradient>
    <linearGradient id="logo_svg__h" x1="107.701" x2="114.404" y1="40.921" y2="40.921"
      gradientUnits="userSpaceOnUse">
      <stop stop-color="#fff"></stop>
      <stop offset="1" stop-color="#C9C8C8"></stop>
    </linearGradient>
    <linearGradient id="logo_svg__i" x1="96.694" x2="107.697" y1="43.667" y2="43.667"
      gradientUnits="userSpaceOnUse">
      <stop stop-color="#fff"></stop>
      <stop offset="1" stop-color="#C9C8C8"></stop>
    </linearGradient>
    <linearGradient id="logo_svg__j" x1="80.935" x2="95.069" y1="42.523" y2="42.523"
      gradientUnits="userSpaceOnUse">
      <stop stop-color="#fff"></stop>
      <stop offset="1" stop-color="#C9C8C8"></stop>
    </linearGradient>
    <linearGradient id="logo_svg__k" x1="72.736" x2="78.749" y1="50.676" y2="52.404"
      gradientUnits="userSpaceOnUse">
      <stop stop-color="#fff"></stop>
      <stop offset="1" stop-color="#C9C8C8"></stop>
    </linearGradient>
  </defs>
</svg>